<?xml version="1.0" standalone="no"?>
<!DOCTYPE svg PUBLIC "-//W3C//DTD SVG 20010904//EN"
 "http://www.w3.org/TR/2001/REC-SVG-20010904/DTD/svg10.dtd">
<svg version="1.0" xmlns="http://www.w3.org/2000/svg"
 width="16.000000pt" height="16.000000pt" viewBox="0 0 16.000000 16.000000"
 preserveAspectRatio="xMidYMid meet">
<metadata>
Created by potrace 1.11, written by Peter Selinger 2001-2013
</metadata>
<g transform="translate(0.000000,16.000000) scale(0.001600,-0.001600)"
fill="#000000" stroke="none">
<path d="M6515 9760 c-16 -11 -45 -20 -62 -20 -23 0 -33 -5 -33 -15 0 -8 -7
-15 -15 -15 -9 0 -19 -8 -22 -17 -8 -23 -98 -113 -112 -113 -6 0 -11 -7 -11
-15 0 -8 -6 -15 -14 -15 -8 0 -19 -12 -24 -27 -6 -16 -36 -55 -66 -87 -31 -33
-56 -65 -56 -73 0 -7 -6 -13 -13 -13 -17 0 -91 -76 -84 -87 3 -5 -25 -42 -63
-83 -38 -41 -69 -82 -70 -91 0 -9 -20 -36 -45 -60 -25 -24 -45 -52 -45 -62 0
-10 -7 -20 -16 -24 -8 -3 -13 -12 -10 -19 3 -8 -3 -18 -14 -24 -11 -6 -17 -16
-14 -25 4 -10 0 -15 -12 -15 -10 0 -28 -10 -41 -21 -21 -21 -23 -21 -29 -4 -4
10 -16 27 -26 37 -10 10 -16 23 -13 28 4 6 1 10 -4 10 -6 0 -11 7 -11 15 0 8
-4 15 -9 15 -5 0 -12 18 -16 40 -4 25 -12 40 -21 40 -17 0 -19 27 -1 33 9 3 9
7 -1 19 -10 13 -10 17 0 21 10 3 9 9 -4 24 -10 11 -18 26 -18 34 0 8 -11 30
-25 49 -14 19 -25 40 -25 47 0 7 -4 13 -10 13 -5 0 -10 7 -10 15 0 8 -4 15
-10 15 -5 0 -10 7 -10 14 0 8 -16 27 -35 42 -19 15 -38 37 -41 50 -3 13 -12
24 -19 24 -7 0 -15 10 -18 21 -4 14 -11 20 -21 16 -11 -4 -18 1 -22 18 -3 14
-10 25 -14 25 -4 0 -7 8 -6 18 1 13 -11 19 -51 27 -29 6 -58 16 -65 23 -8 8
-47 12 -120 12 -93 0 -108 -2 -108 -16 0 -13 -3 -14 -15 -4 -12 10 -16 9 -21
-4 -3 -9 -11 -16 -18 -16 -7 0 -32 -20 -56 -45 -24 -25 -48 -45 -52 -45 -11 0
-43 -33 -51 -53 -3 -9 -11 -17 -17 -17 -5 0 -10 -7 -10 -15 0 -8 -3 -15 -8
-15 -8 0 -6 -129 4 -217 4 -37 10 -53 20 -53 8 0 14 -6 14 -14 0 -7 16 -33 35
-57 19 -24 35 -54 35 -65 0 -20 14 -33 33 -30 5 0 15 -12 23 -27 8 -15 19 -25
23 -23 4 3 13 -6 20 -20 6 -14 16 -22 21 -19 6 3 10 1 10 -5 0 -6 11 -16 25
-22 14 -6 25 -15 25 -20 0 -4 8 -17 18 -27 39 -44 42 -49 29 -55 -9 -3 -9 -6
1 -13 12 -9 15 -23 28 -143 3 -30 12 -70 20 -88 8 -17 18 -56 21 -85 3 -28 10
-57 15 -63 4 -6 9 -35 9 -64 1 -39 -3 -55 -15 -62 -9 -5 -16 -18 -16 -28 0
-10 -5 -22 -11 -26 -12 -7 -53 -94 -51 -106 1 -5 -2 -8 -8 -8 -5 0 -10 -5 -10
-11 0 -16 -81 -109 -95 -109 -7 0 -15 -9 -18 -20 -3 -12 -14 -20 -26 -20 -12
0 -21 -6 -21 -12 -1 -25 -92 -57 -172 -60 -42 -2 -76 1 -75 6 1 5 -11 12 -27
17 -16 4 -39 17 -51 29 -12 11 -28 20 -36 18 -8 -2 -16 12 -22 40 -6 24 -16
42 -23 42 -8 0 -16 11 -20 25 -3 14 -10 25 -16 25 -5 0 -7 4 -3 9 3 5 1 12 -5
16 -5 3 -10 13 -10 22 0 9 -10 27 -22 40 -12 13 -21 36 -21 53 0 16 -4 30 -9
30 -4 0 -8 9 -8 20 0 11 -6 20 -14 20 -9 0 -12 7 -9 19 7 27 -16 130 -36 160
-12 19 -17 55 -20 143 -2 65 -7 118 -12 118 -5 0 -9 38 -9 85 0 47 4 85 8 85
11 0 32 83 32 128 0 21 5 43 11 49 8 8 8 13 0 17 -14 9 -14 46 -1 46 14 0 12
27 -2 33 -10 4 -10 6 0 6 17 1 15 36 -3 51 -8 7 -15 23 -15 36 0 12 -5 26 -10
29 -6 4 -8 15 -5 25 3 10 1 21 -5 25 -5 3 -10 19 -10 34 0 15 -9 36 -20 46
-11 10 -20 24 -20 31 0 7 -8 19 -18 26 -9 7 -28 30 -42 51 -14 20 -30 35 -36
33 -17 -7 -56 24 -50 39 5 14 -23 45 -41 45 -6 0 -13 6 -16 13 -3 7 -23 13
-48 14 -27 1 -46 8 -52 18 -7 13 -11 14 -24 3 -10 -8 -48 -12 -108 -13 -51 0
-91 -3 -88 -7 2 -5 -4 -8 -15 -8 -10 0 -27 -9 -36 -19 -10 -11 -32 -21 -49
-23 -25 -2 -33 -9 -40 -33 -5 -16 -13 -38 -18 -47 -5 -11 -4 -18 4 -21 7 -3 5
-6 -5 -6 -14 -1 -17 -10 -16 -46 1 -25 5 -45 9 -45 4 0 5 -9 2 -21 -3 -11 0
-32 8 -45 11 -21 11 -27 -1 -34 -8 -5 -11 -12 -7 -16 4 -4 1 -14 -6 -22 -9
-11 -9 -16 -1 -19 7 -2 10 -12 7 -22 -3 -10 0 -22 7 -26 8 -5 8 -10 -1 -21 -6
-8 -8 -14 -4 -14 4 0 2 -7 -5 -15 -7 -9 -10 -18 -7 -22 4 -3 3 -11 -2 -17 -6
-6 -11 -23 -13 -36 -2 -14 -7 -31 -11 -38 -5 -7 -7 -25 -6 -40 1 -15 -3 -40
-10 -55 -6 -16 -11 -39 -11 -52 0 -13 -5 -27 -11 -31 -7 -4 -9 -22 -6 -45 3
-22 1 -39 -4 -39 -5 0 -9 -11 -9 -24 0 -13 -6 -27 -12 -30 -10 -5 -10 -7 -1
-12 9 -4 8 -15 -3 -46 -7 -22 -11 -44 -8 -49 3 -5 1 -9 -5 -9 -5 0 -12 -21
-16 -47 -3 -27 -14 -64 -24 -84 -13 -24 -19 -56 -20 -99 0 -47 -4 -68 -15 -76
-9 -6 -16 -19 -16 -28 0 -9 -3 -16 -7 -16 -5 0 -8 -26 -9 -57 0 -35 -5 -58
-12 -61 -7 -2 -12 -19 -12 -38 0 -21 -4 -33 -10 -29 -6 4 -10 -13 -10 -44 0
-28 -4 -51 -9 -51 -5 0 -12 -11 -15 -25 -4 -14 -11 -25 -18 -25 -6 0 -17 -8
-24 -17 -12 -17 -14 -16 -38 6 -14 14 -26 29 -26 34 0 5 -16 24 -35 43 -19 18
-35 37 -35 42 0 5 -9 21 -21 36 -11 15 -19 33 -16 41 3 7 -1 19 -9 25 -8 7
-14 19 -14 26 0 8 -4 14 -8 14 -4 0 -16 22 -26 49 -10 28 -24 55 -32 62 -8 6
-14 20 -14 30 0 11 -5 19 -11 19 -5 0 -8 4 -5 9 3 5 -1 14 -9 21 -8 7 -15 19
-15 26 0 8 -5 14 -11 14 -5 0 -7 5 -4 10 3 6 2 10 -4 10 -5 0 -12 14 -16 30
-4 17 -11 30 -16 30 -6 0 -7 5 -4 10 3 6 1 10 -5 10 -6 0 -9 4 -5 10 7 11 -10
42 -42 78 -13 13 -20 28 -17 33 3 5 -2 16 -10 25 -9 8 -16 24 -16 34 0 10 -7
20 -15 24 -8 3 -12 12 -9 21 3 8 1 15 -6 15 -6 0 -9 4 -5 10 5 8 -5 23 -40 64
-5 6 -10 17 -11 24 -1 6 -2 19 -2 27 -1 8 -9 15 -17 15 -9 0 -15 9 -15 24 0
15 -7 26 -19 29 -11 3 -22 17 -26 35 -4 21 -14 32 -30 36 -16 4 -22 11 -19 21
4 8 1 15 -6 15 -6 0 -9 4 -6 9 4 5 0 12 -6 14 -10 4 -10 6 0 6 7 1 -10 24 -37
52 -28 29 -51 56 -51 61 0 13 -26 38 -40 38 -14 0 -58 28 -87 55 -35 33 -52
45 -63 45 -5 0 -10 8 -10 19 0 16 -10 19 -72 22 -131 6 -186 2 -203 -15 -9 -9
-21 -16 -27 -16 -5 0 -8 -6 -5 -12 2 -7 -5 -28 -16 -46 l-20 -34 22 -28 c11
-16 21 -34 21 -40 0 -6 11 -26 25 -44 14 -18 25 -38 25 -44 0 -7 5 -12 10 -12
6 0 10 -11 10 -25 0 -14 9 -33 20 -42 11 -10 20 -23 20 -30 0 -7 5 -13 10 -13
6 0 10 -6 10 -14 0 -7 6 -19 14 -25 8 -7 17 -30 21 -52 4 -21 11 -39 16 -39 5
0 9 -7 9 -15 0 -8 4 -15 8 -15 4 0 8 -10 9 -22 1 -12 9 -25 17 -30 8 -5 13
-15 10 -23 -4 -8 1 -18 10 -21 9 -3 13 -10 11 -15 -3 -4 3 -17 15 -29 11 -11
20 -31 20 -45 0 -16 6 -25 15 -25 9 0 15 -9 15 -24 0 -13 7 -29 15 -36 10 -9
12 -16 5 -24 -6 -8 -3 -17 10 -29 11 -9 20 -23 20 -31 0 -8 6 -16 14 -19 7 -3
16 -21 20 -40 4 -19 13 -38 21 -41 8 -3 15 -14 15 -25 0 -11 5 -23 11 -26 6
-4 8 -13 5 -21 -3 -8 1 -14 8 -14 12 0 29 -36 30 -65 1 -5 4 -14 9 -20 30 -40
59 -92 64 -116 3 -16 10 -29 15 -29 13 0 47 -42 48 -58 0 -16 22 -55 36 -64 7
-4 15 -24 18 -43 4 -19 11 -35 16 -35 4 0 11 -13 15 -29 3 -16 15 -37 26 -47
10 -9 19 -23 19 -29 0 -7 9 -24 20 -38 11 -14 20 -32 20 -41 0 -9 9 -25 20
-36 11 -11 20 -29 20 -40 0 -11 7 -20 16 -20 8 0 13 -4 10 -9 -3 -5 6 -25 19
-45 14 -21 29 -55 34 -77 5 -22 22 -56 37 -75 16 -20 33 -44 39 -55 5 -10 15
-19 22 -19 7 0 13 -5 13 -11 0 -14 25 -39 39 -39 6 0 11 -7 11 -15 0 -9 7 -18
15 -21 8 -4 15 -12 15 -19 0 -6 9 -20 20 -30 11 -10 20 -15 20 -11 0 4 11 -5
25 -20 14 -15 25 -23 25 -18 0 4 16 -7 35 -26 19 -19 35 -40 35 -48 0 -7 5
-10 10 -7 6 3 10 1 10 -5 0 -13 30 -46 30 -33 0 4 4 2 9 -6 5 -7 20 -13 35
-13 15 0 26 -6 26 -14 0 -10 13 -14 39 -14 22 0 42 -4 45 -8 3 -5 43 -9 90
-10 71 0 87 2 96 16 5 9 10 13 10 8 0 -13 40 30 40 43 0 5 9 13 20 16 11 3 20
15 20 26 0 10 4 19 9 19 5 0 13 15 16 33 4 17 13 43 20 57 20 37 35 89 35 121
0 15 4 29 9 31 5 2 14 43 19 92 6 49 14 91 19 95 5 3 11 29 12 56 4 92 20 190
30 193 6 2 11 14 11 27 0 27 19 74 37 93 22 23 73 -6 73 -40 0 -16 6 -28 13
-28 19 0 126 -110 121 -124 -3 -7 2 -19 11 -26 8 -7 15 -21 15 -32 0 -25 29
-54 63 -62 15 -4 25 -10 23 -15 -3 -5 30 -32 74 -60 44 -29 80 -59 80 -68 0
-12 7 -14 29 -10 23 5 36 -1 66 -28 20 -19 40 -34 43 -34 4 1 21 1 39 0 23 -1
31 -5 27 -15 -7 -18 27 -23 205 -25 81 -1 147 -6 149 -11 5 -12 29 -13 34 -1
3 8 128 24 176 22 12 0 22 5 22 13 0 8 6 14 13 13 42 -1 62 10 128 73 41 38
77 70 82 70 4 0 16 9 27 20 27 27 80 27 80 0 0 -13 10 -24 25 -30 24 -9 30
-23 25 -63 -1 -12 4 -17 15 -15 10 2 22 -5 29 -15 16 -27 84 -94 101 -101 8
-3 15 -12 15 -20 0 -7 7 -16 15 -20 8 -3 15 -11 15 -18 0 -17 54 -68 73 -68 8
0 20 -7 27 -15 7 -8 23 -15 36 -15 13 0 24 -4 24 -9 0 -4 26 -9 57 -10 31 0
59 -5 62 -9 10 -15 40 -21 47 -10 4 7 9 6 14 -3 7 -10 14 -9 34 4 14 9 31 17
39 17 7 0 24 11 37 25 13 14 29 25 36 25 7 0 15 14 19 30 4 17 15 35 26 40 10
6 19 17 19 25 0 8 7 15 15 15 18 0 20 30 3 30 -7 0 -5 5 5 11 17 10 24 49 8
49 -4 0 -6 11 -3 25 3 17 0 25 -9 25 -8 0 -15 10 -15 23 -5 79 -9 97 -20 101
-6 2 -18 22 -25 43 -6 20 -18 44 -26 51 -7 7 -13 19 -13 26 0 8 -6 19 -14 25
-16 14 -29 65 -26 104 1 16 -5 36 -13 45 -19 23 -1 56 33 61 14 1 37 16 52 32
16 16 28 24 28 19 0 -14 33 -13 48 2 16 16 300 18 310 1 4 -6 45 -17 92 -23
47 -7 89 -16 95 -21 5 -5 15 -9 22 -9 21 0 112 -64 112 -78 1 -8 10 -16 21
-19 11 -3 20 -11 20 -18 0 -8 9 -17 20 -20 11 -3 20 -12 20 -20 0 -8 8 -16 18
-20 11 -3 24 -17 30 -31 7 -14 26 -33 42 -42 17 -9 33 -25 36 -34 3 -10 11
-18 17 -18 7 0 19 -15 26 -32 8 -18 23 -39 33 -46 10 -8 18 -26 18 -43 0 -19
5 -29 13 -27 13 3 64 -42 60 -53 -1 -4 7 -15 17 -24 11 -10 20 -26 20 -37 0
-10 7 -18 15 -18 8 0 15 -5 15 -11 0 -6 20 -34 43 -62 24 -29 47 -60 50 -69 4
-10 13 -18 22 -18 8 0 15 -8 15 -18 0 -24 48 -65 67 -58 11 5 13 1 8 -16 -6
-18 -4 -20 14 -15 15 3 24 -1 31 -14 9 -16 22 -19 80 -19 46 0 70 4 73 13 3 9
7 9 20 -2 11 -9 17 -10 17 -2 0 6 8 11 19 11 10 0 24 7 31 15 7 8 16 12 21 9
5 -3 9 -1 9 4 0 5 12 15 26 22 29 16 66 84 57 106 -3 8 0 14 6 14 7 0 11 25
11 70 0 40 -4 70 -10 70 -5 0 -10 7 -10 15 0 15 -3 24 -34 82 -9 17 -16 38
-16 47 0 9 -6 16 -13 16 -11 0 -37 47 -42 75 -3 21 -29 65 -37 65 -5 0 -6 5
-3 10 3 6 -3 10 -14 10 -12 0 -21 7 -21 15 0 9 -7 18 -15 21 -8 4 -12 10 -9
15 3 5 -3 18 -14 29 -10 11 -25 33 -33 48 -8 15 -20 33 -26 40 -7 7 -13 18
-13 23 0 5 -7 9 -15 9 -8 0 -15 7 -15 14 0 16 -59 66 -77 66 -6 0 -13 10 -17
23 -3 12 -14 32 -25 44 -11 11 -17 24 -14 27 3 3 -6 18 -20 32 -15 15 -27 36
-27 46 0 14 -5 18 -15 14 -9 -3 -23 3 -32 14 -9 10 -20 17 -25 14 -4 -3 -8 0
-8 6 0 7 -6 10 -12 8 -7 -3 -30 12 -51 31 -22 20 -40 34 -41 31 -1 -3 -22 15
-47 39 -50 49 -88 68 -99 50 -5 -7 -16 -1 -31 20 -12 17 -28 31 -35 31 -7 0
-23 4 -36 9 -13 5 -27 9 -32 9 -5 0 -12 6 -16 12 -4 7 -25 14 -46 17 -22 3
-43 11 -47 19 -4 8 -13 14 -18 14 -6 0 -19 10 -30 23 -11 13 -22 18 -26 12
-12 -16 -42 -15 -36 1 4 10 -4 14 -30 14 -20 0 -40 6 -44 13 -9 15 -78 37
-117 37 -15 0 -29 6 -32 14 -3 9 -25 14 -67 15 -80 1 -147 11 -147 21 0 5 -9
11 -19 15 -16 5 -19 13 -15 42 2 20 11 44 19 53 8 9 15 22 15 29 0 7 32 47 71
89 40 42 79 92 87 109 9 18 22 33 29 33 7 0 13 6 13 14 0 8 18 36 40 61 22 25
40 51 40 56 0 6 4 8 9 4 5 -3 16 4 24 15 7 11 16 18 19 15 3 -3 13 4 23 15 10
11 22 20 27 20 12 0 48 38 48 51 0 5 4 8 9 5 5 -3 11 1 15 9 3 8 12 15 21 15
24 0 175 155 175 179 0 12 6 21 14 21 17 0 22 18 25 90 1 30 7 57 13 61 7 4 7
9 -1 13 -6 4 -11 17 -11 30 0 12 -13 35 -29 50 -16 16 -27 35 -24 42 3 8 -1
14 -11 14 -9 0 -16 8 -16 20 0 15 -7 20 -25 20 -16 0 -25 6 -25 15 0 8 -7 15
-15 15 -8 0 -23 9 -32 20 -10 11 -30 20 -45 20 -18 0 -28 5 -28 15 0 12 -15
15 -74 15 -41 0 -80 2 -88 5 -7 3 -26 -4 -43 -15z"/>
<path d="M590 6635 c-14 -8 -35 -19 -48 -24 -13 -6 -25 -23 -28 -41 -4 -16
-10 -30 -15 -30 -5 0 -9 -25 -9 -55 0 -30 5 -55 10 -55 6 0 10 -11 10 -25 0
-14 5 -25 10 -25 6 0 10 -15 10 -33 0 -36 35 -117 50 -117 6 0 10 -6 10 -13 0
-18 24 -67 33 -67 4 0 7 -6 7 -13 0 -8 9 -22 20 -32 11 -10 20 -27 20 -37 0
-11 11 -36 25 -56 14 -20 25 -42 25 -48 0 -6 9 -19 20 -29 11 -10 20 -26 20
-36 0 -10 7 -22 15 -26 8 -5 20 -36 26 -68 6 -33 16 -71 24 -85 7 -14 16 -41
20 -60 4 -19 13 -42 21 -50 7 -9 16 -52 19 -100 4 -47 11 -89 16 -95 14 -15
10 -71 -6 -85 -9 -7 -13 -21 -10 -34 10 -37 -12 -238 -27 -247 -11 -7 -10 -11
2 -19 10 -7 12 -12 4 -17 -6 -5 -17 -36 -24 -70 -8 -35 -17 -63 -22 -63 -4 0
-10 -16 -14 -36 -4 -19 -13 -38 -20 -41 -8 -3 -14 -11 -14 -19 0 -8 -5 -14
-11 -14 -6 0 -8 -7 -5 -17 5 -11 -5 -27 -29 -50 -19 -18 -40 -33 -45 -33 -6 0
-10 -7 -10 -15 0 -8 -3 -15 -7 -16 -5 -1 -26 -3 -47 -5 -21 -1 -44 -8 -50 -14
-16 -16 -104 -12 -131 6 -13 9 -29 13 -34 10 -5 -4 -12 -2 -16 4 -3 5 -14 10
-25 10 -10 0 -20 6 -23 14 -3 8 -24 17 -46 21 -22 4 -44 12 -50 19 -6 7 -30
13 -53 15 -24 1 -50 3 -58 3 -42 3 -80 -3 -80 -13 0 -6 -12 -25 -26 -42 -26
-31 -27 -33 -20 -140 4 -71 11 -116 21 -130 8 -12 15 -29 15 -39 0 -10 7 -18
15 -18 8 0 15 -7 15 -15 0 -27 23 -60 101 -147 28 -32 55 -55 60 -52 5 3 9 1
9 -5 0 -12 60 -42 71 -35 5 3 9 0 9 -5 0 -6 8 -11 19 -11 10 0 24 -6 30 -14 8
-10 23 -13 47 -9 21 4 40 1 50 -8 23 -19 353 -20 376 -2 8 7 35 12 58 11 26
-1 45 3 48 10 2 7 14 12 27 12 12 0 28 7 35 15 7 8 23 15 35 15 12 0 28 7 35
15 7 8 16 12 22 9 5 -3 29 10 53 30 24 20 48 36 54 36 6 0 11 5 11 11 0 5 4 8
9 4 13 -8 31 27 31 60 0 14 7 28 15 31 8 4 15 13 15 21 0 8 5 11 10 8 6 -3 10
-1 10 6 0 7 6 20 14 28 8 9 17 35 19 59 3 24 11 50 17 58 10 11 10 17 0 28 -9
12 -7 17 9 28 12 7 21 22 21 33 0 12 4 25 9 31 12 13 31 212 31 327 0 58 4 97
10 97 6 0 10 14 10 30 0 17 -4 30 -10 30 -5 0 -10 5 -10 10 0 6 7 10 17 10 14
0 15 12 9 107 -3 59 -10 109 -14 112 -5 3 -8 15 -9 26 -1 31 -13 157 -18 185
-3 14 -6 48 -7 75 0 28 -7 59 -15 70 -7 11 -13 27 -13 37 0 10 -7 18 -15 18
-8 0 -15 9 -15 20 0 29 -29 82 -40 75 -11 -7 -14 13 -11 63 2 23 -2 32 -13 32
-9 0 -20 16 -28 43 -7 23 -27 56 -45 73 -18 17 -36 46 -39 63 -5 22 -11 30
-20 27 -9 -3 -14 2 -14 15 0 11 -7 22 -15 25 -8 4 -15 12 -15 18 0 22 -25 66
-37 66 -7 0 -13 9 -13 21 0 11 -9 32 -19 46 -11 13 -18 30 -15 38 3 7 -6 26
-21 41 -44 50 -55 64 -55 73 0 4 -11 20 -25 35 -14 15 -25 34 -25 42 0 7 -6
14 -14 14 -7 0 -25 11 -40 25 -20 19 -38 25 -72 25 -32 0 -44 4 -44 15 0 8 -6
15 -12 16 -7 1 -33 3 -58 5 -27 2 -55 -2 -70 -11z"/>
<path d="M1788 6593 c-16 -10 -28 -21 -28 -25 0 -5 -7 -8 -15 -8 -8 0 -15 -7
-15 -15 0 -8 -7 -15 -15 -15 -8 0 -15 -7 -15 -15 0 -8 -4 -15 -10 -15 -5 0
-10 -9 -10 -19 0 -11 -7 -26 -15 -35 -8 -8 -15 -22 -15 -30 0 -9 -5 -15 -12
-13 -20 4 -32 -61 -21 -116 8 -38 7 -65 -2 -106 -7 -31 -13 -90 -13 -131 0
-55 -4 -77 -16 -85 -11 -8 -17 -38 -22 -103 -4 -51 -10 -92 -14 -92 -10 0 -21
-69 -25 -159 -2 -44 -8 -77 -15 -81 -8 -5 -11 -23 -8 -49 2 -22 0 -41 -4 -41
-11 0 -10 -68 1 -74 5 -3 7 -15 4 -25 -3 -10 0 -22 6 -25 14 -9 14 -73 0 -81
-6 -4 -8 -13 -5 -21 3 -8 1 -14 -4 -14 -6 0 -10 -11 -10 -25 0 -14 5 -25 12
-25 6 0 8 -3 5 -7 -4 -3 -2 -12 3 -18 6 -7 13 -41 16 -76 3 -35 8 -71 11 -79
4 -8 7 -19 8 -25 1 -5 3 -12 4 -15 1 -3 4 -16 7 -29 2 -13 13 -36 24 -51 11
-16 20 -33 20 -39 0 -6 5 -11 10 -11 6 0 10 -11 10 -25 0 -15 11 -36 25 -49
13 -13 22 -26 18 -30 -4 -3 3 -15 15 -26 12 -12 22 -27 22 -34 0 -8 7 -16 15
-20 8 -3 15 -12 15 -19 0 -8 7 -20 15 -27 11 -9 12 -16 4 -26 -8 -9 -5 -16 13
-25 28 -14 118 -105 118 -119 0 -6 7 -10 15 -10 8 0 26 -18 40 -40 14 -23 34
-44 43 -47 9 -4 26 -14 37 -24 115 -102 179 -154 186 -151 5 1 9 -2 9 -7 0 -5
10 -13 22 -17 12 -3 36 -22 53 -40 21 -22 35 -30 42 -23 7 7 14 5 23 -6 7 -8
23 -15 35 -15 14 0 25 -7 28 -20 4 -14 14 -20 36 -20 16 0 34 -7 38 -15 6 -9
27 -17 56 -19 25 -2 64 -13 85 -24 32 -16 66 -21 176 -26 88 -4 136 -3 136 4
0 5 13 10 28 10 16 0 37 9 47 20 10 11 22 17 26 14 14 -8 99 38 111 61 6 11
26 38 43 60 18 22 36 51 40 65 4 14 13 32 20 40 7 8 16 33 20 55 4 22 12 43
18 47 17 11 19 145 2 162 -8 8 -17 32 -21 54 -4 24 -16 50 -30 63 -13 12 -24
31 -24 41 0 17 -7 18 -82 13 -122 -8 -178 -16 -178 -26 0 -5 -13 -9 -29 -9
-17 0 -32 -4 -35 -8 -6 -10 -59 -7 -76 3 -6 4 -20 -1 -32 -12 -22 -20 -69 -25
-80 -9 -6 8 -10 8 -15 0 -15 -21 -61 -22 -79 -3 -10 11 -26 19 -36 19 -11 0
-41 18 -67 40 -26 22 -55 40 -64 40 -10 0 -17 8 -17 19 0 12 -9 23 -22 27 -36
11 -98 64 -98 83 0 26 40 58 83 65 20 4 37 11 37 16 0 5 16 12 35 16 19 3 35
11 35 17 0 6 3 7 7 4 3 -4 13 -2 20 5 8 6 32 11 54 10 22 -2 39 2 39 8 0 5 8
10 18 10 10 0 22 4 27 9 6 5 32 12 59 15 27 3 52 10 56 17 6 8 9 8 14 0 10
-16 26 -14 26 4 0 9 9 15 24 15 14 0 28 5 31 10 3 6 15 10 26 10 10 0 19 4 19
9 0 5 13 11 29 14 16 3 35 13 44 21 8 8 37 21 63 27 27 7 52 17 56 22 3 6 15
11 25 12 61 5 89 18 113 50 14 19 30 35 35 35 6 0 16 15 23 34 7 19 21 36 31
39 16 4 19 16 20 98 1 51 5 96 10 99 14 10 12 93 -3 125 -16 34 -79 89 -90 78
-3 -4 -6 -1 -6 5 0 6 -16 14 -35 18 -19 3 -35 9 -35 13 0 4 -20 7 -45 7 -25
-1 -47 4 -50 9 -3 7 -7 7 -10 0 -3 -5 -28 -8 -55 -7 -30 3 -57 -1 -65 -8 -12
-10 -15 -10 -15 0 0 10 -3 10 -14 1 -8 -7 -40 -15 -70 -18 -38 -4 -56 -10 -56
-19 0 -10 -16 -14 -58 -14 -32 0 -62 -3 -66 -7 -3 -4 -21 -8 -39 -9 -17 0 -34
-2 -37 -4 -3 -1 -19 -1 -36 0 -18 1 -35 -3 -38 -9 -5 -8 -67 -23 -108 -26 -3
0 -9 -3 -13 -7 -4 -4 -13 -4 -21 -1 -8 3 -20 1 -27 -5 -14 -11 -85 -26 -109
-23 -10 1 -18 -2 -18 -7 0 -5 -11 -7 -25 -4 -15 2 -25 0 -25 -7 0 -17 -25 -13
-43 7 -11 12 -14 30 -10 64 5 46 7 48 47 59 73 20 116 45 116 68 0 6 7 8 15 4
9 -3 25 3 35 12 11 10 23 15 26 12 4 -4 18 3 32 13 13 11 31 20 38 20 8 0 14
3 14 8 0 12 50 31 66 25 8 -3 14 1 14 11 0 9 8 16 19 16 11 0 23 5 26 10 3 6
21 10 40 10 18 0 46 7 62 14 38 20 66 30 79 27 7 -1 14 5 17 13 4 9 29 17 71
21 37 4 69 11 72 16 3 5 17 9 31 9 40 0 143 23 143 32 0 4 17 10 38 14 20 3
46 12 58 19 12 8 38 17 59 21 67 12 155 88 155 133 0 12 4 21 10 21 5 0 9 30
9 67 -1 40 4 69 10 71 14 5 15 22 1 22 -5 0 -24 14 -42 30 -75 69 -149 121
-180 127 -18 3 -36 12 -40 18 -4 7 -25 16 -45 20 -21 4 -43 11 -50 16 -7 7
-14 6 -18 -1 -5 -8 -11 -8 -19 -1 -19 16 -213 18 -228 3 -8 -8 -44 -12 -100
-12 -64 0 -88 -3 -88 -12 0 -9 -4 -8 -11 2 -8 11 -12 12 -16 3 -3 -8 -26 -13
-63 -13 -35 0 -60 -5 -62 -12 -4 -10 -59 -19 -116 -18 -13 0 -31 -9 -41 -21
-14 -17 -31 -22 -101 -26 -77 -5 -87 -3 -107 16 -12 12 -34 21 -48 21 -14 0
-25 5 -25 10 0 6 -7 10 -15 10 -9 0 -15 9 -15 21 0 15 -5 19 -15 15 -10 -3
-15 1 -15 13 0 17 -10 19 -87 20 -68 1 -94 -3 -115 -16z"/>
<path d="M5405 6522 c-16 -2 -35 -8 -42 -13 -7 -7 -14 -6 -18 2 -6 8 -10 7
-16 -2 -6 -10 -9 -11 -9 -1 0 14 -32 16 -45 3 -11 -10 -87 -18 -260 -27 -60
-4 -113 -11 -116 -17 -4 -5 -31 -12 -60 -14 -30 -3 -59 -12 -65 -20 -7 -8 -27
-15 -45 -17 -69 -6 -119 -19 -119 -30 0 -6 -4 -5 -9 3 -7 11 -12 11 -32 -2
-13 -8 -39 -18 -57 -22 -18 -4 -36 -13 -38 -20 -3 -7 -16 -16 -30 -19 -13 -4
-24 -11 -24 -16 0 -6 -6 -10 -13 -10 -24 0 -67 -25 -73 -42 -3 -10 -12 -18
-20 -18 -8 0 -14 -5 -14 -10 0 -6 -11 -15 -25 -20 -14 -5 -25 -14 -25 -19 0
-8 -19 -13 -89 -27 -8 -2 -26 -17 -39 -34 -13 -17 -30 -29 -37 -26 -14 5 -82
-60 -72 -70 3 -4 -5 -26 -18 -49 -14 -23 -25 -51 -25 -62 0 -12 -6 -23 -13
-26 -20 -8 -22 -111 -2 -127 18 -15 20 -46 4 -56 -8 -4 -8 -8 0 -13 6 -4 11
-32 12 -64 2 -48 5 -57 21 -57 10 0 18 -4 18 -10 0 -14 33 -50 46 -50 6 0 14
-9 17 -19 3 -11 21 -26 40 -34 19 -8 38 -20 41 -26 4 -7 40 -11 90 -11 74 0
85 2 105 24 13 14 29 22 36 20 7 -3 15 4 18 15 3 14 11 18 25 14 13 -3 33 3
51 16 34 24 58 26 85 6 12 -9 17 -21 13 -37 -7 -26 1 -42 25 -51 11 -4 19 -22
23 -51 4 -25 10 -46 14 -46 4 0 8 -8 9 -17 11 -110 16 -140 26 -153 7 -8 13
-30 14 -49 2 -18 7 -41 12 -51 6 -10 10 -28 10 -39 0 -11 7 -24 15 -28 10 -6
17 -32 21 -73 4 -36 13 -68 19 -72 7 -4 16 -23 19 -42 4 -20 13 -48 21 -63 8
-15 15 -42 15 -59 0 -17 6 -37 14 -43 7 -6 16 -39 18 -76 3 -36 11 -71 17 -79
6 -7 8 -16 4 -20 -4 -3 1 -12 10 -19 12 -8 18 -29 20 -70 2 -63 -7 -77 -49
-69 -25 4 -34 -12 -11 -21 6 -3 -2 -6 -19 -6 -23 -1 -34 -8 -42 -26 -6 -14
-16 -25 -22 -25 -5 0 -10 -4 -10 -10 0 -5 -8 -19 -17 -29 -22 -27 -24 -36 -23
-176 0 -71 4 -121 10 -123 5 -2 10 -15 10 -28 0 -13 5 -24 10 -24 6 0 10 -6
10 -14 0 -8 7 -16 15 -20 8 -3 15 -12 15 -21 0 -8 17 -34 39 -58 21 -23 42
-52 45 -64 4 -13 12 -23 17 -23 5 0 9 -7 9 -15 0 -8 9 -15 20 -15 11 0 20 -7
20 -15 0 -8 7 -15 15 -15 17 0 56 -20 66 -34 4 -4 22 -10 40 -12 19 -2 40 -11
46 -21 10 -12 34 -17 105 -20 51 -2 100 -5 108 -6 39 -5 205 15 212 26 6 9 8
9 8 0 0 -17 27 -16 33 1 3 8 29 16 63 21 31 4 64 11 73 15 9 5 32 12 52 15 21
3 48 14 62 25 14 11 31 20 39 20 7 0 27 9 43 20 17 11 45 20 63 20 20 0 32 5
32 14 0 7 13 19 29 25 15 7 45 28 65 47 20 19 45 34 56 34 11 0 20 6 20 13 0
12 44 37 65 37 5 0 16 9 23 20 7 11 17 20 22 20 10 0 30 15 92 70 47 42 199
193 213 213 6 8 19 27 30 43 10 16 30 39 42 51 13 12 23 26 23 31 0 5 9 17 20
27 11 10 20 24 20 32 0 7 5 13 10 13 6 0 10 8 10 19 0 21 23 45 33 34 4 -3 7
9 7 28 0 19 5 40 11 46 19 19 16 353 -3 378 -22 28 -57 85 -62 103 -4 10 -15
27 -26 37 -11 10 -20 24 -20 32 0 8 -7 21 -15 29 -8 9 -15 24 -15 35 0 10 -6
19 -14 19 -17 0 -76 68 -76 87 0 7 -6 13 -13 13 -16 0 -67 52 -67 68 0 7 -8
12 -18 12 -10 0 -25 9 -35 20 -9 11 -23 20 -30 20 -7 0 -23 14 -37 30 -14 17
-29 30 -34 30 -15 0 -66 52 -66 67 0 17 -30 17 -30 1 -1 -8 -6 -6 -14 5 -7 9
-18 17 -25 17 -6 0 -11 8 -11 18 1 20 23 52 37 52 5 0 27 24 48 53 22 28 45
55 52 60 7 4 15 24 18 45 4 20 13 52 21 70 14 29 16 71 15 218 -1 28 -6 44
-16 48 -8 3 -15 13 -15 22 0 9 -11 29 -25 46 -14 16 -25 38 -25 49 0 10 -6 19
-14 19 -7 0 -26 25 -41 56 -15 31 -35 59 -44 61 -9 2 -21 14 -26 26 -6 12 -22
28 -37 35 -16 7 -32 21 -38 32 -6 11 -26 21 -50 25 -26 4 -40 12 -40 22 0 9
-6 13 -14 10 -19 -7 -89 12 -98 27 -6 8 -10 7 -17 -2 -7 -11 -9 -11 -14 2 -4
9 -24 18 -47 22 -22 4 -40 10 -40 15 0 13 -37 11 -45 -1 -5 -8 -12 -7 -22 1
-14 12 -221 20 -288 11z m-138 -711 c-1 -16 -5 -27 -9 -24 -5 2 -8 -2 -8 -10
0 -17 -54 -39 -75 -30 -9 3 -21 0 -29 -6 -17 -14 -29 -2 -14 16 6 7 8 16 5 19
-2 3 6 17 19 31 19 20 30 24 53 20 17 -4 33 -2 36 3 12 20 24 9 22 -19z m516
-847 c-3 -8 1 -14 11 -14 9 0 17 8 17 18 1 15 2 15 6 0 3 -11 14 -16 32 -16
15 1 37 -4 49 -11 12 -7 26 -10 30 -7 5 3 16 -4 26 -15 13 -15 24 -19 43 -15
19 5 26 3 30 -14 3 -11 10 -20 17 -20 6 0 31 -18 55 -39 36 -31 44 -44 43 -70
0 -18 -8 -41 -16 -50 -9 -10 -16 -22 -16 -28 0 -6 -7 -14 -16 -17 -8 -3 -12
-10 -9 -16 3 -5 2 -10 -3 -10 -5 0 -12 -9 -15 -20 -3 -11 -12 -20 -20 -20 -9
0 -19 -9 -22 -20 -3 -11 -13 -20 -21 -20 -8 0 -14 -7 -14 -15 0 -8 -7 -15 -16
-15 -8 0 -12 -4 -9 -10 3 -5 0 -10 -8 -10 -8 0 -17 -7 -21 -15 -3 -8 -12 -15
-21 -15 -8 0 -15 -7 -15 -15 0 -8 -6 -15 -13 -15 -8 0 -19 -10 -26 -22 -7 -13
-36 -34 -64 -48 -28 -14 -58 -32 -67 -40 -34 -34 -70 -48 -120 -51 -54 -3 -54
-3 -74 38 -12 22 -27 47 -34 55 -7 9 -13 32 -14 52 -1 20 -5 39 -9 42 -5 2 -6
11 -3 19 3 7 -3 18 -15 24 -11 7 -23 26 -27 45 -3 19 -12 37 -19 39 -10 4 -19
37 -26 92 0 6 -5 16 -11 22 -6 7 -8 19 -5 27 3 8 -1 20 -9 26 -8 7 -14 28 -14
46 0 25 -5 34 -17 35 -16 1 -16 2 -1 6 9 2 18 14 20 25 2 12 12 26 23 32 11 6
24 16 30 22 5 7 32 14 59 18 28 3 53 12 58 19 6 9 8 9 8 -1 0 -8 5 -10 13 -5
19 12 40 13 54 1 9 -7 13 -7 13 0 0 7 30 12 78 14 90 4 103 1 95 -18z"/>
<path d="M6993 6482 c-24 -2 -43 -8 -43 -13 0 -5 -11 -14 -25 -19 -14 -5 -25
-14 -25 -20 0 -5 -7 -10 -15 -10 -8 0 -15 -4 -15 -10 0 -5 -9 -18 -21 -29 -12
-11 -18 -24 -14 -30 3 -6 1 -11 -4 -11 -6 0 -11 -11 -11 -24 0 -13 -6 -26 -12
-28 -9 -3 -14 -43 -16 -142 -3 -113 -1 -140 11 -149 15 -12 19 -35 34 -207 3
-41 11 -78 17 -82 7 -5 6 -8 -3 -8 -12 0 -11 -3 1 -17 9 -10 18 -40 21 -68 6
-54 10 -70 22 -99 5 -12 3 -21 -6 -27 -12 -8 -12 -10 -1 -18 13 -8 24 -79 34
-211 2 -25 6 -50 10 -55 6 -12 16 -74 24 -165 4 -45 12 -72 26 -87 15 -16 19
-30 15 -52 -5 -23 -2 -33 11 -40 10 -6 12 -11 5 -11 -15 0 -18 -46 -4 -54 5
-4 12 -24 16 -46 4 -25 12 -40 21 -40 8 0 14 -4 14 -10 0 -5 -4 -10 -10 -10
-10 0 -9 -20 3 -50 8 -21 17 -85 24 -155 3 -33 10 -66 15 -72 7 -9 7 -17 -1
-27 -8 -10 -9 -16 -1 -21 5 -3 10 -16 10 -28 0 -13 7 -33 16 -45 8 -12 12 -27
9 -32 -3 -6 -1 -10 4 -10 14 0 15 -97 1 -105 -5 -3 7 -26 26 -52 19 -25 33
-52 30 -59 -3 -8 -1 -14 3 -14 5 0 19 -20 31 -45 12 -25 27 -45 33 -45 7 0 21
-15 32 -34 31 -52 111 -116 146 -116 17 0 32 -6 35 -15 7 -17 104 -22 104 -5
0 6 9 10 20 10 11 0 33 14 48 30 16 17 32 30 36 30 23 0 47 47 57 113 6 39 16
83 23 96 14 30 11 194 -3 199 -6 2 -11 19 -11 37 0 19 -5 37 -10 40 -6 4 -7
11 -4 17 4 6 -1 17 -11 24 -19 14 -24 32 -29 89 -1 17 -9 41 -18 55 -8 14 -18
50 -22 79 -3 35 -11 58 -21 64 -9 5 -15 18 -14 30 3 29 -11 96 -21 102 -5 3
-6 14 -3 25 3 11 0 27 -6 34 -7 8 -13 29 -13 46 -1 18 -7 34 -14 37 -8 3 -12
9 -9 13 3 5 1 11 -5 15 -5 3 -10 44 -10 91 0 46 -4 84 -9 84 -5 0 -7 9 -4 20
4 15 0 20 -13 20 -13 0 -15 3 -7 8 9 6 8 19 -4 55 -15 45 -15 49 2 61 20 15
14 51 -8 43 -8 -3 -12 7 -10 36 0 24 -5 46 -13 55 -11 10 -12 18 -4 27 8 10 8
15 0 20 -8 5 -8 11 0 20 7 9 6 16 -6 26 -13 11 -15 25 -9 76 5 44 3 68 -5 78
-12 15 -17 171 -6 182 11 11 6 33 -7 33 -15 0 -17 9 -18 83 0 31 -4 47 -13 47
-8 0 -11 10 -8 30 3 20 -2 37 -12 49 -10 11 -18 34 -18 52 0 23 -10 44 -30 66
-17 17 -27 36 -24 42 4 6 3 11 -3 11 -6 0 -13 16 -17 35 -3 19 -10 35 -15 35
-5 0 -9 9 -9 20 0 11 -4 20 -10 20 -5 0 -10 9 -10 19 0 10 -7 21 -15 25 -8 3
-15 12 -15 21 0 14 -6 16 -53 19 -10 1 -21 6 -25 11 -4 6 -18 12 -32 13 -14 0
-34 3 -45 5 -11 1 -39 1 -62 -1z"/>
<path d="M8796 6304 c-3 -9 -13 -14 -20 -11 -16 6 -66 -13 -66 -25 0 -5 -13
-8 -30 -8 -16 0 -30 -3 -30 -7 0 -10 -49 -33 -68 -33 -8 0 -27 -11 -44 -25
-16 -14 -36 -25 -44 -25 -9 0 -30 -11 -48 -25 -18 -14 -38 -25 -44 -25 -7 0
-12 -6 -12 -13 0 -15 -41 -57 -56 -57 -12 0 -44 -37 -38 -43 3 -2 -9 -16 -26
-30 -16 -14 -30 -31 -30 -36 0 -6 -11 -21 -25 -33 -14 -12 -25 -27 -25 -34 0
-8 -9 -18 -20 -24 -11 -6 -20 -20 -20 -30 0 -11 -7 -20 -15 -20 -8 0 -17 -12
-21 -27 -4 -16 -13 -33 -21 -39 -7 -7 -13 -16 -12 -20 4 -15 -20 -64 -31 -64
-5 0 -10 -6 -10 -14 0 -8 -8 -21 -18 -28 -10 -7 -21 -21 -25 -30 -3 -10 -13
-18 -22 -18 -17 0 -20 -11 -5 -26 7 -7 4 -16 -10 -29 -11 -10 -20 -29 -20 -42
0 -14 -6 -23 -15 -23 -11 0 -15 -14 -16 -57 -3 -97 -7 -127 -18 -131 -6 -2
-11 -19 -11 -37 0 -19 -4 -36 -9 -39 -7 -5 -6 -474 1 -562 2 -18 11 -41 21
-51 9 -11 17 -35 17 -56 0 -23 6 -39 16 -45 10 -5 16 -23 17 -45 0 -21 5 -37
9 -37 4 0 8 -6 8 -14 0 -8 7 -16 15 -20 8 -3 15 -13 15 -21 0 -48 65 -144 98
-145 7 0 11 -4 8 -8 -9 -14 92 -135 137 -165 15 -10 25 -22 22 -27 -4 -6 -1
-10 6 -10 7 0 31 -16 55 -35 23 -19 47 -35 53 -35 6 0 11 -7 11 -16 0 -8 5
-12 10 -9 6 3 10 2 10 -3 0 -6 15 -13 34 -16 19 -4 37 -13 40 -21 3 -8 18 -15
33 -15 16 0 50 -12 77 -26 53 -28 56 -28 276 -21 116 4 146 8 156 21 8 11 27
16 61 16 32 0 55 5 63 14 6 8 18 12 26 9 8 -3 14 0 14 6 0 6 13 11 29 11 19 0
43 13 73 39 26 23 60 42 81 46 20 4 37 10 37 14 0 9 107 121 115 121 4 0 18
14 32 30 14 17 28 29 30 26 7 -7 73 62 73 76 0 6 3 9 6 5 8 -8 34 18 34 33 0
7 26 39 58 73 59 62 96 122 86 138 -3 5 0 9 5 9 6 0 11 8 11 19 0 10 7 24 16
32 8 7 13 21 11 31 -3 10 -1 21 4 24 5 3 9 14 9 25 0 10 9 24 20 31 11 7 20
21 20 32 0 10 8 24 17 31 14 11 15 16 5 28 -9 11 -10 17 -2 22 6 4 10 23 9 43
-1 20 3 50 10 65 16 42 14 133 -4 151 -10 9 -11 17 -5 21 6 4 7 12 3 18 -11
17 -12 37 -3 37 15 0 19 55 4 71 -8 9 -11 19 -8 22 4 4 2 12 -4 19 -5 7 -13
42 -16 77 -3 35 -9 67 -14 70 -4 3 -13 20 -19 36 -6 17 -15 39 -19 50 -4 11
-6 26 -5 33 1 8 -4 21 -11 29 -13 16 -14 19 -16 61 -1 12 -9 22 -17 22 -8 0
-17 11 -21 25 -3 14 -10 25 -16 25 -5 0 -6 5 -3 10 4 6 1 17 -5 25 -10 12 -10
15 0 15 13 0 -11 29 -67 82 -18 17 -33 36 -33 42 0 6 -9 17 -20 24 -11 7 -20
17 -20 23 0 12 -31 46 -38 41 -7 -7 -118 106 -114 117 2 6 -7 11 -20 11 -22 1
-58 21 -58 33 0 13 -35 47 -47 47 -7 0 -13 5 -13 10 0 6 -9 10 -20 10 -13 0
-20 7 -20 20 0 16 -7 20 -30 20 -16 0 -30 5 -30 10 0 6 -7 10 -16 10 -8 0 -13
4 -10 9 3 5 -1 11 -9 15 -8 3 -17 0 -21 -6 -5 -8 -10 -7 -18 3 -6 8 -22 20
-36 27 -14 6 -32 16 -40 20 -37 21 -60 32 -70 32 -5 0 -20 10 -31 21 -17 17
-23 19 -30 8 -6 -10 -9 -11 -9 -1 0 6 -11 12 -24 12 -14 0 -28 5 -31 10 -3 6
-30 10 -60 10 -39 0 -54 -4 -59 -16z m461 -663 c17 -14 32 -31 32 -37 1 -6 14
-14 30 -17 18 -4 32 -14 36 -27 3 -11 12 -20 20 -20 7 0 15 -8 18 -17 4 -10
16 -30 28 -45 12 -14 22 -38 22 -52 0 -14 4 -26 9 -26 5 0 6 -4 3 -10 -3 -5
-1 -10 4 -10 6 0 11 -13 11 -29 0 -17 4 -32 8 -35 9 -6 8 -271 -2 -361 -4 -33
-11 -61 -16 -63 -6 -2 -10 -18 -10 -36 0 -39 -20 -86 -37 -86 -7 0 -13 -9 -13
-20 0 -11 -7 -23 -15 -26 -8 -4 -15 -12 -15 -20 0 -8 -4 -14 -10 -14 -5 0 -10
-9 -10 -19 0 -11 -9 -23 -20 -26 -11 -3 -20 -12 -20 -20 0 -13 -27 -30 -43
-26 -4 0 -11 -7 -14 -16 -9 -24 -44 -52 -65 -53 -10 0 -23 -9 -30 -20 -7 -11
-20 -20 -30 -20 -9 0 -19 -4 -22 -9 -3 -5 -19 -7 -36 -5 -20 3 -33 -1 -36 -11
-4 -8 -12 -15 -20 -15 -8 0 -14 -4 -14 -10 0 -5 -11 -10 -24 -10 -13 0 -26 -5
-28 -11 -2 -5 -28 -12 -58 -14 -97 -8 -139 -16 -146 -27 -4 -7 -9 -6 -14 2 -4
7 -20 13 -36 14 -16 1 -35 5 -42 10 -7 4 -16 5 -19 2 -7 -7 -63 25 -63 36 0 4
-8 8 -17 9 -11 0 -13 3 -5 6 18 7 15 20 -8 26 -11 3 -20 12 -20 21 0 9 -4 16
-8 16 -4 0 -14 17 -21 38 -8 20 -19 40 -25 44 -6 4 -12 44 -14 90 -2 46 -7 88
-11 93 -9 12 -7 62 2 71 3 4 4 26 0 49 -3 26 -1 45 6 49 6 4 11 20 11 36 0 15
4 30 10 32 11 4 18 59 19 141 1 45 4 57 17 57 10 0 14 6 11 14 -3 8 1 20 9 26
8 7 14 19 14 26 0 8 5 14 10 14 6 0 10 10 10 23 0 13 9 33 20 45 11 12 20 26
20 31 0 6 9 16 20 23 11 7 20 18 20 25 0 6 5 15 10 18 6 4 10 3 9 -2 -4 -20 3
-22 26 -7 23 15 25 15 31 0 8 -21 24 -21 24 0 0 14 9 16 73 10 39 -4 76 -12
82 -17 13 -13 45 -11 45 4 0 8 4 7 11 -3 8 -11 12 -12 16 -2 2 6 12 12 22 12
26 0 71 24 71 38 0 6 6 12 14 12 17 0 56 63 56 90 0 10 12 32 26 50 30 35 49
34 101 -9z"/>
<path d="M8440 3620 c0 -5 -7 -7 -15 -4 -8 3 -20 2 -27 -2 -6 -4 -35 -9 -63
-10 -87 -4 -175 -15 -175 -23 0 -3 -18 -5 -40 -3 -23 2 -47 -1 -55 -8 -12 -10
-18 -10 -30 0 -9 7 -15 8 -15 2 0 -10 -82 -23 -157 -24 -30 0 -43 -5 -43 -14
0 -10 -14 -14 -50 -14 -28 0 -52 -5 -57 -12 -10 -15 -65 -17 -75 -3 -5 6 -11
6 -19 -2 -6 -6 -18 -9 -25 -6 -8 3 -22 2 -31 -3 -10 -4 -27 -8 -38 -9 -72 -7
-140 -17 -149 -23 -6 -3 -18 -5 -28 -4 -9 2 -19 -2 -23 -8 -3 -5 -21 -10 -39
-10 -56 0 -96 -11 -96 -27 0 -10 -6 -13 -16 -9 -9 4 -30 -8 -56 -32 -22 -20
-42 -36 -44 -34 -7 4 -34 -25 -34 -36 0 -5 -9 -17 -20 -27 -11 -10 -20 -24
-20 -31 0 -7 -6 -15 -12 -17 -10 -4 -9 -8 2 -16 10 -7 11 -11 3 -11 -7 0 -13
-12 -13 -27 0 -14 -7 -34 -16 -44 -9 -10 -18 -43 -21 -81 -3 -35 -9 -68 -14
-75 -7 -7 -6 -14 0 -18 7 -4 5 -14 -4 -29 -9 -13 -15 -28 -14 -32 3 -13 -12
-67 -23 -81 -5 -7 -7 -17 -3 -23 3 -5 -1 -20 -9 -32 -9 -12 -16 -30 -16 -40 0
-9 -7 -21 -16 -26 -11 -6 -18 -28 -21 -68 -3 -32 -10 -62 -16 -66 -7 -4 -7 -8
-2 -8 6 0 5 -4 -2 -8 -6 -4 -13 -29 -14 -56 -2 -26 -8 -50 -15 -53 -7 -2 -15
-16 -18 -29 -5 -20 -12 -25 -34 -22 -14 2 -31 12 -37 23 -11 22 -35 52 -78 97
-16 17 -26 36 -23 44 3 8 -1 14 -9 14 -8 0 -15 7 -15 15 0 9 -7 18 -15 21 -8
4 -15 14 -15 24 0 17 -63 76 -102 94 -10 5 -22 22 -25 38 -3 15 -12 28 -19 28
-8 0 -14 5 -14 10 0 6 -9 10 -20 10 -11 0 -20 7 -20 15 0 8 -8 15 -19 15 -10
0 -35 16 -55 35 -20 19 -56 40 -79 46 -24 6 -55 25 -74 45 -17 19 -40 34 -51
34 -11 0 -22 7 -26 15 -3 8 -18 15 -33 15 -30 1 -63 20 -63 39 0 6 -13 11 -29
11 -16 0 -37 7 -45 16 -9 8 -44 20 -78 26 -35 6 -70 17 -79 25 -8 7 -35 13
-58 13 -24 0 -58 7 -77 16 -19 9 -47 14 -64 12 -16 -2 -31 0 -33 5 -7 22 -541
11 -592 -13 -11 -5 -38 -15 -60 -22 -22 -7 -42 -15 -45 -18 -13 -14 -52 -30
-70 -30 -11 0 -23 -6 -26 -13 -2 -7 -23 -13 -46 -14 -26 -1 -45 -8 -50 -18 -5
-8 -15 -15 -22 -15 -22 0 -66 -25 -66 -37 0 -7 -6 -13 -13 -13 -12 0 -41 -56
-38 -72 0 -5 -3 -8 -8 -8 -5 0 -12 -14 -16 -31 -8 -36 14 -149 30 -149 5 0 3
-5 -5 -11 -11 -8 -12 -12 -2 -16 6 -2 12 -15 12 -28 0 -13 5 -27 10 -30 6 -3
10 -13 10 -22 0 -9 7 -24 15 -33 8 -9 17 -34 19 -56 3 -43 49 -104 78 -104 9
0 20 -4 23 -10 3 -5 19 -10 34 -10 16 0 34 -6 40 -14 15 -18 61 -27 82 -16 12
7 26 0 55 -27 21 -20 38 -40 36 -45 -3 -12 16 -84 34 -125 8 -17 14 -42 14
-57 0 -14 7 -29 16 -34 11 -6 18 -25 19 -53 1 -28 15 -68 38 -111 20 -39 31
-70 26 -74 -7 -4 -7 -10 0 -18 5 -6 15 -34 22 -61 6 -28 16 -54 20 -59 5 -6 9
-20 9 -31 0 -12 3 -24 6 -28 4 -3 8 -32 10 -63 2 -33 9 -61 16 -65 7 -5 13
-14 13 -21 2 -31 19 -93 27 -99 5 -3 11 -39 14 -80 9 -140 12 -184 15 -194 2
-5 0 -24 -3 -41 l-7 -32 -68 5 c-37 3 -74 11 -82 17 -11 8 -15 8 -18 -1 -3 -7
-16 -13 -30 -13 -26 0 -73 -40 -73 -62 0 -6 -3 -9 -6 -5 -7 7 -44 -24 -44 -37
0 -5 -7 -18 -17 -28 -13 -14 -13 -18 -2 -18 11 0 14 -20 15 -91 0 -51 5 -93
10 -97 6 -4 10 -17 9 -29 -1 -13 2 -23 7 -23 4 0 8 -7 8 -15 0 -8 5 -15 10
-15 6 0 10 -11 10 -25 0 -14 4 -25 9 -25 5 0 15 -14 22 -32 13 -31 43 -68 55
-68 6 0 86 -61 94 -72 3 -4 36 -13 73 -20 45 -8 67 -17 67 -27 0 -21 332 -11
357 11 11 10 45 18 92 21 59 5 76 10 88 26 8 12 21 21 29 21 8 0 14 4 14 8 0
5 18 14 40 21 22 6 40 16 40 21 0 5 9 12 20 15 11 3 20 12 20 20 0 7 16 16 35
19 21 4 35 13 35 21 0 8 15 21 34 29 18 8 37 19 40 25 4 6 15 11 24 11 9 0 32
16 49 35 18 19 36 35 40 35 4 1 24 14 43 30 19 17 38 30 44 30 5 0 23 15 40
32 17 18 37 32 43 30 7 -2 13 6 13 18 0 11 6 20 14 20 8 0 17 9 21 19 3 11 12
22 20 25 8 3 15 12 15 21 0 8 6 15 13 15 7 0 29 18 49 39 19 21 47 47 62 56
14 10 26 25 26 34 0 30 41 57 75 50 17 -4 26 -7 22 -8 -4 0 1 -11 12 -23 11
-11 18 -24 16 -28 -3 -4 2 -13 10 -20 8 -7 17 -28 21 -49 4 -22 19 -48 39 -67
32 -31 47 -57 49 -84 1 -8 11 -16 24 -18 12 -2 22 -10 22 -18 0 -8 6 -14 13
-14 16 0 57 -42 57 -58 0 -6 16 -14 36 -18 19 -4 38 -12 40 -19 3 -7 24 -18
47 -25 23 -8 49 -19 58 -27 8 -7 43 -16 77 -19 34 -4 62 -11 62 -15 0 -5 7 -9
16 -9 9 0 18 -9 21 -20 6 -22 23 -26 40 -9 8 8 13 8 17 0 9 -14 49 -14 62 -1
6 6 57 12 115 15 57 3 124 8 149 12 48 7 47 7 70 15 8 4 24 9 35 14 11 4 35 8
54 10 19 2 37 7 40 12 3 5 33 12 66 16 32 4 66 13 75 21 20 18 37 19 43 3 3
-9 10 -6 20 8 11 14 28 21 53 22 20 1 42 6 48 11 7 6 31 13 55 17 23 4 45 13
48 21 5 12 7 12 15 1 7 -10 11 -10 15 0 2 6 15 12 27 12 13 0 31 9 41 20 10
11 31 20 47 20 16 0 49 14 73 30 24 17 50 30 59 30 8 0 18 5 21 10 3 6 13 10
22 10 17 0 22 4 146 120 57 55 80 84 89 114 7 23 18 46 24 51 14 12 26 175 13
175 -5 0 -8 22 -7 49 2 35 -3 55 -15 69 -9 10 -17 26 -17 36 0 9 -6 19 -14 22
-8 3 -16 15 -19 26 -4 13 -11 19 -21 15 -9 -4 -20 1 -25 11 -7 13 -27 18 -89
20 -72 4 -82 2 -102 -18 -12 -12 -28 -19 -36 -16 -15 6 -47 -8 -72 -31 -7 -7
-27 -13 -43 -13 -16 0 -29 -5 -29 -12 0 -6 -3 -8 -6 -5 -4 3 -16 0 -26 -8 -11
-7 -27 -11 -34 -8 -8 3 -14 0 -14 -6 0 -6 -9 -11 -19 -11 -10 0 -21 -6 -24
-14 -3 -8 -15 -12 -30 -9 -17 3 -31 -2 -45 -17 -13 -14 -30 -21 -49 -19 -15 1
-35 -1 -43 -4 -22 -8 -72 -18 -92 -18 -10 0 -18 -5 -18 -11 0 -6 -9 -8 -20 -5
-11 3 -22 1 -25 -4 -3 -4 -12 -6 -20 -2 -8 3 -15 0 -15 -5 0 -11 -39 -28 -54
-23 -6 1 -19 -2 -30 -7 -39 -19 -61 -25 -78 -23 -9 1 -19 -3 -23 -9 -3 -6 -11
-7 -17 -4 -9 6 -88 -26 -88 -36 0 -3 -23 -3 -50 -2 -32 3 -63 -2 -85 -12 -25
-12 -50 -15 -101 -11 -37 4 -75 10 -85 15 -9 5 -19 6 -23 3 -3 -3 -6 0 -6 8 0
8 -15 20 -32 27 -26 10 -30 14 -19 21 12 8 13 12 1 25 -7 9 -10 19 -7 23 4 3
2 12 -5 20 -12 15 -13 143 -1 152 11 8 10 35 -2 43 -6 5 -5 8 3 8 9 0 11 7 7
20 -4 11 -2 20 4 20 6 0 11 17 11 39 0 23 6 44 15 51 13 11 13 15 3 22 -10 6
-6 14 15 33 32 29 60 31 110 10 39 -16 172 -21 181 -6 3 4 42 11 86 14 44 3
86 9 93 14 7 5 27 9 45 7 17 -1 32 3 32 8 0 18 36 46 68 53 17 3 32 10 32 15
0 10 33 8 41 -4 4 -4 18 -1 32 9 15 10 54 18 99 21 40 2 74 8 76 13 1 4 16 5
32 3 17 -2 36 0 43 6 6 6 29 13 50 17 20 4 37 10 37 14 0 3 16 6 35 5 19 -1
39 4 46 12 6 8 22 14 35 14 12 0 26 5 29 10 4 6 11 8 16 5 5 -4 9 -1 9 4 0 6
6 11 14 11 7 0 19 6 26 14 6 8 18 12 26 9 8 -3 14 1 14 11 0 9 5 16 10 16 13
0 60 49 60 61 0 5 6 9 13 9 23 0 41 112 34 217 -7 100 -21 133 -57 133 -10 0
-20 7 -24 15 -3 8 -14 15 -24 15 -10 0 -27 9 -37 20 -9 10 -37 22 -61 26 -24
3 -47 11 -50 16 -4 6 -10 5 -14 -3 -10 -15 -98 -15 -113 0 -14 14 -204 15
-209 1 -2 -6 -55 -13 -118 -16 -63 -4 -124 -12 -135 -19 -18 -11 -86 -23 -175
-31 -56 -5 -110 6 -110 22 0 8 -7 14 -16 14 -14 0 -14 2 0 22 9 12 16 28 16
36 0 30 54 82 118 113 37 18 72 38 77 45 6 8 41 16 85 20 41 3 84 12 95 19 26
16 115 35 163 35 21 0 43 5 48 10 6 6 30 11 55 13 34 3 44 7 43 20 -2 20 12
23 19 5 4 -10 8 -9 16 2 10 13 12 13 21 0 8 -12 11 -13 19 -1 5 8 30 14 62 15
66 3 132 16 140 28 3 4 30 10 60 13 30 3 74 7 99 10 25 3 71 6 103 7 31 1 57
5 57 9 0 6 64 14 190 24 14 2 31 3 38 4 6 0 12 8 12 16 0 8 9 15 20 15 11 0
20 5 20 11 0 5 4 8 8 5 13 -8 60 45 73 82 6 18 17 32 25 32 7 0 16 16 20 38 4
20 11 42 16 49 6 7 5 14 -2 18 -8 5 -8 11 1 21 6 8 8 14 3 14 -12 0 -16 58 -4
65 12 8 -12 51 -44 76 -14 11 -26 26 -26 32 0 14 -49 39 -61 31 -5 -3 -9 2 -9
10 0 10 -9 16 -24 16 -13 0 -26 6 -29 14 -3 8 -27 18 -54 21 -26 4 -58 13 -69
20 -25 16 -474 20 -474 5z m-2780 -1059 c3 -4 28 -11 55 -15 30 -3 55 -13 63
-24 10 -14 14 -14 21 -3 7 11 10 9 16 -8 4 -12 15 -21 26 -21 25 0 91 -49 83
-61 -3 -5 3 -12 13 -16 10 -3 34 -24 54 -45 23 -25 45 -38 61 -38 18 0 38 -14
69 -50 23 -27 47 -46 53 -43 6 4 5 0 -2 -9 -10 -13 -10 -17 3 -22 8 -3 15 -15
15 -26 0 -11 7 -23 15 -26 8 -4 15 -17 15 -29 0 -13 5 -27 10 -30 6 -3 10 -15
10 -25 0 -10 5 -20 11 -22 8 -3 11 -43 11 -126 -1 -124 -11 -161 -50 -186 -12
-7 -12 -10 -1 -17 11 -7 10 -9 -5 -9 -11 0 -16 -5 -13 -14 3 -8 -3 -22 -14
-32 -11 -10 -18 -23 -15 -30 3 -7 -4 -14 -17 -16 -12 -2 -21 -9 -20 -16 2 -6
-2 -12 -7 -12 -6 0 -10 -6 -10 -13 0 -14 -90 -117 -102 -117 -4 0 -30 -25 -59
-55 -28 -30 -60 -55 -70 -55 -11 0 -19 -7 -19 -15 0 -8 -3 -14 -8 -12 -4 1
-18 -8 -31 -20 -13 -12 -27 -21 -30 -18 -4 2 -13 0 -21 -5 -20 -12 -50 16 -50
47 0 14 -6 23 -15 23 -10 0 -15 10 -15 34 0 24 -7 38 -22 49 -20 13 -21 18
-11 35 10 16 9 23 -5 36 -11 9 -18 32 -19 56 -1 22 -9 50 -17 62 -9 13 -16 43
-16 70 0 36 -4 48 -15 48 -8 0 -16 6 -16 13 -3 33 -18 68 -33 80 -8 6 -7 10 2
14 16 6 15 33 -2 33 -9 0 -16 19 -21 58 -4 31 -13 64 -20 72 -7 8 -16 34 -20
58 -4 23 -11 42 -16 42 -12 0 -12 37 1 45 6 4 6 13 0 25 -6 11 -14 29 -20 40
-5 11 -10 29 -10 40 0 11 -7 31 -16 44 -10 17 -12 26 -4 31 8 5 7 11 -2 22 -7
9 -14 30 -15 47 -2 40 -7 67 -17 89 -5 9 -6 23 -3 31 3 7 0 19 -6 26 -9 10 -9
11 1 6 6 -4 14 -1 17 6 4 10 35 12 137 10 73 -2 135 -7 138 -11z"/>
<path d="M1576 3575 c-10 -7 -42 -17 -72 -21 -30 -3 -54 -10 -54 -14 0 -5 -8
-6 -17 -4 -11 3 -31 -7 -48 -23 -16 -15 -31 -27 -32 -25 -2 1 -3 0 -3 -3 1
-15 -69 -79 -100 -91 -28 -12 -32 -17 -20 -24 12 -8 11 -11 -7 -16 -13 -4 -23
-13 -23 -20 0 -8 -7 -17 -15 -20 -8 -4 -15 -12 -15 -19 0 -7 -7 -18 -15 -25
-9 -7 -14 -18 -12 -24 5 -14 -33 -56 -50 -56 -8 0 -17 -8 -20 -17 -10 -25 -32
-52 -91 -110 -29 -28 -59 -67 -67 -86 -8 -20 -26 -44 -40 -55 -14 -11 -25 -23
-25 -27 0 -4 -11 -20 -25 -37 -14 -16 -25 -37 -25 -46 0 -15 -2 -15 -10 -2 -9
15 -11 12 -14 -20 -3 -30 -30 -105 -41 -112 -5 -4 -11 -13 -11 -20 -3 -27 -17
-58 -25 -58 -5 0 -9 -9 -9 -20 0 -11 -4 -28 -9 -38 -28 -51 -51 -111 -51 -130
0 -12 -4 -22 -8 -22 -5 0 -15 -26 -22 -57 -8 -32 -17 -60 -22 -64 -4 -3 -12
-27 -17 -53 -5 -27 -14 -52 -21 -56 -6 -4 -14 -33 -17 -66 -3 -32 -12 -66 -19
-74 -19 -22 -28 -296 -10 -303 15 -6 36 -80 36 -124 0 -16 14 -55 30 -86 17
-32 30 -74 30 -93 0 -19 5 -34 10 -34 6 0 10 -9 10 -20 0 -12 12 -32 26 -45
15 -14 24 -25 20 -25 -5 0 11 -22 33 -49 23 -27 41 -54 41 -60 0 -6 5 -11 11
-11 5 0 17 -15 25 -33 32 -66 39 -77 51 -77 7 0 13 -3 13 -8 0 -12 58 -72 69
-72 6 0 11 -9 11 -21 0 -12 8 -23 20 -26 11 -3 20 -10 20 -16 0 -16 51 -67 67
-67 8 0 16 -7 19 -15 4 -8 12 -15 19 -15 8 0 27 -11 43 -25 17 -14 35 -25 40
-25 6 0 15 -6 19 -13 4 -8 29 -17 56 -20 26 -4 67 -16 92 -27 24 -11 73 -23
107 -27 35 -3 66 -11 70 -16 9 -14 262 -9 267 5 2 6 7 5 13 -3 7 -11 11 -11
15 -1 6 15 35 16 49 2 8 -8 15 -6 24 5 7 8 21 15 32 15 10 0 21 6 24 14 3 8
20 18 37 21 18 4 49 18 69 31 21 13 40 24 43 24 3 0 19 14 35 30 16 17 32 30
35 30 13 0 105 94 105 107 0 7 7 16 15 19 8 4 15 11 15 17 0 10 59 86 91 115
9 10 19 28 21 42 2 14 13 29 25 35 18 7 24 21 29 57 4 31 12 48 20 48 8 0 17
12 20 28 4 15 15 38 26 51 10 13 18 37 18 52 0 16 4 29 9 29 5 0 11 13 14 29
3 16 12 35 19 42 15 16 17 41 4 51 -6 4 -4 13 3 22 7 9 15 41 17 72 2 31 9 63
15 70 6 7 8 18 4 24 -4 6 -1 17 5 25 6 8 11 31 10 52 -1 21 -1 43 0 48 1 6 2
14 1 19 -1 4 2 13 7 20 10 13 -9 285 -21 304 -5 7 -11 49 -14 93 -3 43 -10 79
-14 79 -5 0 -6 6 -3 14 3 8 0 17 -6 21 -9 6 -9 9 1 15 9 6 10 12 2 22 -6 7
-13 38 -16 68 -6 68 -16 111 -31 129 -6 7 -11 19 -12 25 0 6 -2 17 -2 24 -1 6
-9 12 -17 12 -12 0 -13 3 -3 19 9 15 9 23 -1 35 -7 8 -14 27 -16 41 -1 14 -11
36 -22 48 -11 12 -18 28 -16 35 4 10 -7 28 -58 90 -5 6 -7 12 -3 12 4 0 0 8
-9 18 -9 9 -18 31 -20 47 -3 18 -10 29 -17 27 -11 -3 -11 0 0 12 10 13 10 16
-4 16 -9 0 -16 7 -16 15 0 8 -6 15 -14 15 -8 0 -18 9 -21 20 -3 11 -11 20 -16
20 -5 0 -14 11 -19 25 -5 14 -16 25 -25 25 -8 0 -15 7 -15 16 0 19 -162 174
-199 190 -14 6 -46 30 -70 53 -24 22 -54 41 -65 42 -58 2 -149 20 -163 31 -7
6 -26 8 -43 6 -16 -3 -30 -1 -30 4 0 12 -23 9 -44 -7z m359 -730 c22 -30 39
-60 37 -66 -1 -6 2 -17 9 -25 6 -7 8 -17 5 -22 -3 -5 3 -17 14 -27 11 -10 20
-30 20 -44 0 -14 7 -35 15 -45 8 -11 15 -40 15 -64 0 -29 6 -49 16 -56 10 -8
16 -29 17 -64 0 -29 4 -55 9 -58 4 -3 8 -68 8 -145 0 -104 3 -139 13 -140 10
0 10 -2 0 -6 -9 -3 -13 -29 -13 -78 0 -41 -4 -77 -10 -80 -5 -3 -10 -24 -10
-46 0 -21 -4 -39 -8 -39 -4 0 -14 -20 -21 -45 -7 -25 -17 -45 -22 -45 -5 0 -9
-7 -9 -15 0 -8 -4 -23 -9 -33 -25 -47 -51 -114 -51 -132 0 -11 -4 -20 -10 -20
-5 0 -10 -5 -10 -11 0 -13 -25 -39 -38 -39 -5 0 -13 -12 -17 -27 -6 -27 -37
-61 -81 -90 -14 -9 -23 -21 -21 -28 3 -7 -5 -10 -24 -7 -20 3 -29 0 -29 -10 0
-8 -11 -24 -25 -36 -14 -12 -25 -19 -25 -16 0 4 -6 2 -12 -4 -35 -27 -275 -33
-315 -6 -14 8 -31 13 -39 10 -8 -3 -14 -1 -14 4 0 5 -11 12 -24 16 -26 6 -146
124 -146 143 0 6 -9 20 -20 31 -11 11 -20 31 -20 45 0 14 -4 25 -9 25 -5 0
-12 15 -15 33 -3 17 -13 46 -22 62 -19 35 -20 155 -1 167 9 6 8 11 -3 18 -12
8 -12 12 -2 18 7 5 15 31 17 58 7 71 15 104 26 104 6 0 9 12 8 28 -4 50 1 83
11 77 6 -3 10 1 10 10 0 9 7 26 15 38 8 12 16 40 19 61 3 21 10 44 15 49 6 6
11 18 11 27 0 9 13 34 30 56 16 21 30 45 30 52 0 6 4 12 8 12 4 0 14 17 21 38
8 20 29 56 47 79 19 23 34 49 34 57 0 9 6 19 14 22 8 3 16 14 19 25 3 10 12
19 21 19 9 0 16 8 16 18 0 25 60 62 102 62 27 0 35 -4 34 -16 0 -9 8 -18 19
-20 11 -1 24 -9 30 -17 12 -16 51 -27 121 -34 44 -4 55 -1 82 22 24 20 32 35
32 61 0 19 4 34 9 34 9 0 13 14 26 93 3 20 11 37 18 37 7 -1 30 -25 52 -55z"/>
<path d="M3940 3460 c0 -4 -12 -7 -27 -5 -19 2 -44 -9 -80 -34 -29 -20 -52
-39 -53 -42 0 -4 -16 -24 -36 -45 -21 -24 -33 -46 -30 -56 2 -10 0 -21 -5 -24
-16 -9 -11 -120 6 -134 8 -7 12 -17 8 -24 -11 -17 -14 -86 -4 -86 5 0 14 -13
20 -30 5 -16 15 -30 22 -30 8 0 8 -4 -1 -15 -10 -13 -10 -19 4 -33 9 -10 16
-26 16 -35 0 -9 6 -17 14 -17 9 0 15 -21 19 -72 4 -40 10 -74 15 -76 4 -1 6
-17 4 -36 -2 -18 1 -37 7 -40 6 -4 11 -36 11 -71 0 -35 4 -66 9 -69 5 -3 7
-15 4 -25 -3 -10 0 -22 6 -25 5 -4 8 -13 4 -21 -3 -9 -1 -21 5 -28 5 -6 13
-56 17 -109 4 -54 11 -98 16 -98 5 0 4 -10 -2 -22 -7 -13 -13 -68 -14 -123 -3
-162 -2 -155 -30 -155 -15 0 -28 7 -32 18 -4 9 -33 44 -65 77 -32 33 -58 67
-58 77 0 9 -11 29 -25 44 -14 15 -25 32 -25 38 0 6 -9 17 -20 24 -13 8 -20 23
-20 42 0 17 -5 30 -10 30 -6 0 -15 11 -20 25 -5 14 -14 25 -20 25 -5 0 -10 13
-10 29 0 17 -8 36 -17 43 -28 21 -72 91 -79 126 -4 17 -10 32 -15 32 -5 0 -15
15 -23 33 -17 38 -48 90 -58 97 -3 3 -10 18 -13 33 -4 15 -13 27 -21 27 -8 0
-18 19 -25 44 -6 25 -17 47 -24 50 -8 3 -17 21 -21 40 -3 20 -9 36 -13 36 -13
0 -31 65 -25 88 5 17 2 22 -12 22 -18 0 -64 55 -64 76 0 5 -8 17 -17 25 -10 9
-36 37 -58 64 -52 61 -127 146 -140 157 -5 4 -23 19 -38 33 -15 14 -35 25 -43
25 -7 0 -14 5 -14 10 0 6 -9 10 -20 10 -11 0 -20 -4 -20 -10 0 -5 -9 -10 -20
-10 -11 0 -20 5 -20 10 0 6 -9 10 -20 10 -11 0 -20 -4 -20 -10 0 -5 -13 -10
-30 -10 -21 0 -30 -5 -30 -16 0 -8 -4 -12 -10 -9 -5 3 -10 -1 -10 -9 0 -9 -7
-16 -15 -16 -8 0 -15 -5 -15 -11 0 -7 -7 -17 -14 -23 -8 -6 -16 -18 -18 -26
-2 -8 -11 -21 -20 -28 -10 -7 -18 -23 -18 -35 0 -12 -4 -58 -9 -102 -10 -91
-4 -144 15 -152 8 -3 14 -11 14 -17 0 -23 25 -66 39 -66 8 0 11 -7 8 -20 -3
-10 2 -25 10 -32 8 -7 19 -23 24 -36 5 -13 18 -26 29 -29 11 -3 20 -11 20 -19
0 -7 6 -17 13 -21 8 -4 16 -16 20 -25 3 -10 13 -18 22 -18 8 0 15 -8 15 -18 0
-10 11 -29 25 -42 14 -13 25 -30 25 -37 0 -8 7 -16 15 -19 8 -4 15 -13 15 -21
0 -8 14 -28 30 -45 17 -16 30 -33 30 -38 0 -4 7 -10 15 -14 8 -3 15 -14 15
-24 0 -11 7 -25 15 -32 8 -7 15 -21 15 -31 0 -38 45 -109 69 -109 11 0 21 -25
21 -55 0 -13 6 -28 14 -32 19 -11 66 -80 66 -98 0 -8 9 -19 19 -25 11 -5 22
-23 26 -40 4 -16 10 -30 14 -30 4 0 13 -11 19 -25 6 -14 18 -25 26 -25 9 0 13
-6 10 -14 -3 -7 6 -27 20 -44 15 -16 26 -37 26 -46 0 -9 7 -16 15 -16 8 0 15
-7 15 -15 0 -8 14 -30 30 -48 17 -19 30 -40 30 -46 0 -6 7 -11 15 -11 8 0 15
-9 15 -20 0 -11 7 -20 16 -20 8 0 13 -4 10 -9 -3 -5 1 -14 9 -21 8 -7 15 -21
15 -31 0 -11 6 -19 14 -19 8 0 17 -15 20 -35 4 -19 13 -35 20 -35 17 0 128
-125 119 -134 -3 -3 1 -6 10 -6 9 0 17 -5 17 -11 0 -7 13 -24 29 -40 16 -15
27 -30 24 -33 -7 -7 149 -156 165 -156 6 0 12 -7 12 -15 0 -8 7 -15 15 -15 9
0 20 -11 25 -25 5 -14 17 -25 26 -25 10 0 25 -6 33 -14 9 -8 43 -18 76 -21 33
-4 62 -11 63 -16 6 -15 109 -11 115 5 3 9 15 12 31 9 17 -4 26 -1 26 7 0 7 14
28 30 47 17 18 30 40 30 48 0 8 5 15 10 15 6 0 10 10 10 23 0 12 9 39 19 60
10 20 14 37 9 37 -7 0 -6 5 1 13 6 8 13 75 16 163 13 393 16 448 25 459 5 7 7
15 3 19 -10 10 -32 113 -32 154 -1 18 -6 32 -13 32 -9 0 -10 3 -2 8 14 10 17
144 3 152 -6 4 -12 30 -13 58 -2 28 -10 62 -19 76 -11 15 -13 26 -6 28 7 2 11
46 11 119 0 90 -3 122 -16 141 -14 21 -15 59 -13 282 2 239 1 258 -16 271 -12
9 -15 15 -7 20 8 5 6 13 -7 27 -10 11 -17 22 -16 24 5 9 -10 34 -21 34 -6 0
-36 22 -66 49 -30 27 -58 47 -62 45 -4 -3 -8 1 -8 9 0 8 -11 18 -25 21 -14 4
-25 13 -25 21 0 10 -10 15 -30 15 -16 0 -30 5 -30 11 0 6 -7 9 -15 6 -8 -4
-17 -3 -19 2 -7 11 -66 12 -66 1z"/>
</g>
</svg>
